<svg xmlns="http://www.w3.org/2000/svg" viewBox="0 0 46 48"><defs><style>.a{fill:none;stroke:#231f20;stroke-miterlimit:10;}.b{fill:#231f20;}</style></defs><title>Artboard 5</title><path class="a" d="M19.74,20.69a3.66,3.66,0,1,1,7.3,0,3.86,3.86,0,0,1-1.61,3.19,4.8,4.8,0,0,0-2,3.89"/><circle class="b" cx="23.39" cy="31.44" r="0.6"/><circle class="a" cx="23" cy="24" r="13.13"/><path class="a" d="M40.86,26.16a17.47,17.47,0,0,1-1.31,4.9l2.91,2.08-1.81,3.14L37.39,34.8a18,18,0,0,1-3.59,3.59l1.48,3.26-3.14,1.81-2.08-2.91a17.47,17.47,0,0,1-4.9,1.31l-.35,3.56H21.19l-.35-3.56a17.47,17.47,0,0,1-4.9-1.31l-2.08,2.91-3.14-1.81,1.48-3.26A18,18,0,0,1,8.61,34.8L5.35,36.28,3.54,33.14l2.91-2.08a17.47,17.47,0,0,1-1.31-4.9l-3.56-.35V22.19l3.56-.35a17.47,17.47,0,0,1,1.31-4.9L3.54,14.86l1.81-3.14L8.61,13.2A18,18,0,0,1,12.2,9.61L10.72,6.35l3.14-1.81,2.08,2.91a17.47,17.47,0,0,1,4.9-1.31l.35-3.56h3.62l.35,3.56a17.47,17.47,0,0,1,4.9,1.31l2.08-2.91,3.14,1.81L33.8,9.61a18,18,0,0,1,3.59,3.59l3.26-1.48,1.81,3.14-2.91,2.08a17.47,17.47,0,0,1,1.31,4.9l3.56.35v3.62Z"/></svg>