<svg xmlns="http://www.w3.org/2000/svg" viewBox="0 0 337 89"><defs><style>.a{fill:#0a0a0a;}</style></defs><title>Asset 2</title><path d="M319.07,30h7.26v.8h-3.16V40h-.94V30.8h-3.16Z"/><path d="M327.63,40V30h1.44l3.26,8.79h0L335.57,30H337V40h-.94V31.08h0L332.76,40h-.88l-3.28-8.89h0V40Z"/><polygon class="a" points="316 88 298 88 273 67 273 88 262 88 262 1 273 1 273 51 298 30 315 30 282.19 58.91 316 88"/><path class="a" d="M212,47a6,6,0,0,0,6,6h18a18,18,0,0,1,0,36H202V77h35a6,6,0,0,0,0-12H219a18,18,0,0,1,0-36h34V41H218A6,6,0,0,0,212,47Z"/><path class="a" d="M194,59c0-16.57-13.66-30-30.5-30S133,42.43,133,59s13.66,30,30.5,30a30.54,30.54,0,0,0,27-16H175c-3.14,2.5-7.14,5-11.5,5-8,0-14.75-6-17.26-13h47.15A29.64,29.64,0,0,0,194,59Zm-48.08-5a18.39,18.39,0,0,1,35.16,0Z"/><path class="a" d="M115,0V35.79a30,30,0,1,0,0,46.42V89h11V0ZM96.5,78A18.5,18.5,0,1,1,115,59.5,18.5,18.5,0,0,1,96.5,78Z"/><polygon class="a" points="39.5 59 64 88 49 88 32 67.88 15 88 0 88 24.5 59 0 30 15 30 32 50.12 49 30 64 30 39.5 59"/></svg>